<svg version="1.2" xmlns="http://www.w3.org/2000/svg" viewBox="0 0 1024 1024" width="1024" height="1024"><style>.a{opacity:0;fill:#e9d9ea}.b{fill:#a154f0}.c{fill:#fe7c3c}</style><path class="a" d="m1496.7 1600.3h-2012.2v-2012.3h2012.2z"/><path class="b" d="m256.8 467.6c28.2-27.9-2.7-79.5-19.1-104.4 37.9-35.2 46.7-90.6-0.7-121.5-33.2-21.8-135.9-40.2-144.9 15.8-5.1 29.9-1.4 63.4-3.4 94.3-2 28.2-13.8 67.8-3.7 95.3 9.4 25.2 37.9 31.6 55.4 10.4 8.7-10.7 11.7-24.8 14.7-37.9 1.1-4.4 0.7-16.1 3.7-19.5 3.7-4 24.5-5.7 29.9-7.3 4.7 24.8 23.5 118.4 68.1 74.8zm-103.3-116.8c-1.4-13.4-9.4-38.6-5.4-51 2.7-9.1 9.1-8.7 19.1-9.1 24.9-1.3 52.4 21.2 23.2 41.6-11.4 8.1-24.2 13.5-36.9 18.5zm168.8 127.5c20.8-1 41.6-0.6 62.1-1.6 17.1-1.1 29.8-3.4 36.5-20.2 4.1-11.1 6.4-31.2-4.7-39.6-12.4-9-31.8-5-45.9-5.7-12.8-0.7-45.7-11.1-26.5-28.9 11.4-10.7 29.1 2.1 42.6-1.6 14.7-4.4 18.1-21.2 16.4-34.9-1-11.8-5-18.5-16.4-22.9-11.1-4-34.3 3.4-43-3-11.7-8.4-1-24.1 7.4-25.8 12.8-3 26.5 5.7 39.9 0.3 11.8-4.7 17.8-15.7 16.1-28.5-2.3-17.8-17.1-20.8-32.5-23.2-22.8-3.3-83.2-14.7-93.3 13.5-4.4 12-2 28.8-2.7 41.2-0.7 22.5-1.7 45-2.7 67.5-1 19.1-1.7 38.3-2.7 57.4-0.6 15.1-5 36.9 7.1 48.6 11.1 10.8 28.8 7.8 42.3 7.4zm175.5-3.7c28.2 8.8 67.4 7.1 71.5-28.8 4.7-41-33.9-29.2-60.4-40.6-34.9-14.8-19.8-48.4 2-69.2 25.8-8.4 66.4-15.7 65.1-51-1.7-36.2-42.6-28.2-66.5-20.1-60 20.1-99 86.6-76.5 148 11.1 29.5 34.9 52 64.8 61.7zm125.5-0.3c10.1-7.4 11.4-19.8 13.8-31.2 7.3-37.6 15.7-90.3-1-126.5-7.8-16.5-27.2-27.9-41.7-12.8-10.4 11.1-10.4 35.3-11.7 49-2.4 29.9-9.7 80.6 3.3 108.7 7.1 14.8 22.5 23.2 37.3 12.8zm-44-207.1c13.8 46.4 75.5 5.4 64.8-28.5 5.4-16.8-24.2-23.1-34.6-20.1-19.4 5.3-35.9 28.8-30.2 48.6zm105.7 211.5c26.2-3.4 24.5-36.6 24.5-56.4 0-15.1-1.6-39.3 11.5-50.7 9.4-8 27.1-11.1 37.9-17.8 22.5-13.7 43.9-34.9 40.6-63.4-6.4-53-68.5-63.1-111.8-61.8-38.6 1.4-34.9 37-36.5 68.5-2.1 40.3-1.1 80.6-3.1 121.2-1 23.1 3.1 64.7 36.9 60.4zm44.3-147.7c-18.4 5.7-15.4-4-14.7-18.5 0.3-14.7-6.4-48.6 16.4-37.2 10.8 5.7 17.1 19.5 16.5 31.2-0.4 12.1-6.4 20.8-18.2 24.5zm118.5 147.3c20.8-1 41.6-0.6 62.1-1.6 17.1-1.1 29.9-3.4 36.6-20.2 4-11.1 6.4-31.2-4.7-39.6-12.4-9-31.9-5-46-5.7-12.8-0.7-45.6-11.1-26.5-28.9 11.4-10.7 29.2 2.1 42.6-1.6 14.8-4.4 18.1-21.2 16.5-34.9-1.1-11.8-5.1-18.5-16.5-22.9-11.1-4-34.2 3.4-42.9-3-11.8-8.4-1.1-24.1 7.3-25.8 12.8-3 26.5 5.7 40 0.3 11.7-4.7 17.8-15.7 16.1-28.5-2.4-17.8-17.1-20.8-32.6-23.2-22.8-3.3-83.2-14.7-93.3 13.5-4.3 12-2 28.8-2.7 41.2-0.6 22.5-1.6 45-2.6 67.5-1 19.1-1.7 38.3-2.7 57.4-0.7 15.1-5.1 36.9 7 48.6 11.1 10.8 28.9 7.8 42.3 7.4z"/><path class="b" d="m253.7 749.3c28.5-3 59.1-12.4 76.5-36.6 18.5-25.8 18.8-69.8-5-92.6 20.1-17.8 38.6-49.6 27.5-77.2-13.1-33.2-55-33.5-84.9-32.5-22.5 0.3-61.4-4.7-75.2 17.4-11 18.5-6 46.3-5.3 66.8 1 38.6-3.7 82.6 5.3 120.2 7.1 31.2 32.2 37.5 61.1 34.5zm-16.4-50c0.3-9.4-3.7-31.2 0.3-38.6 3.7-6.7 9.7-7 19.8-7.4 13.1-0.3 32.2 3.1 27.8 20.9-4.6 19.1-31.8 23.4-47.9 25.1zm2-103.3c-1.7-1.4-0.7-21.2 0-22.5 5.7-13.1 57.7-5.7 48 10.7-5.4 9.1-18.5 10.4-27.9 11.4-2 0.4-18.1 2-20.1 0.4zm226.2 148.6c50.3-19.1 55.3-92.3 46.9-137.6-9.4-50.3-55.3-70.8-102.3-54-60.4 21.5-57.4 87.9-42 138.9 6.8 22.5 13.8 42 36.6 52.1 18.5 8 41.6 7.7 60.8 0.6zm-41.3-45.3c-13.1-13.4-12.1-51.3-6.7-68.4 4-12.1 24.8-28.9 39.2-21.2 19.2 10.8 12.8 57.1 8.4 74.2-5.3 19.8-21.8 34.9-40.9 15.4zm201 45.3c50.3-19.1 55.4-92.3 47-137.6-9.4-50.3-55.4-70.8-102.4-54-60.4 21.5-57.4 87.9-41.9 138.9 6.7 22.5 13.7 42 36.6 52.1 18.4 8 41.6 7.7 60.7 0.6zm-41.3-45.3c-13.1-13.4-12.1-51.3-6.7-68.4 4-12.1 24.8-28.9 39.3-21.2 19.1 10.8 12.7 57.1 8.4 74.2-5.4 19.8-21.8 34.9-41 15.4zm230.2 41.6c31.6-25.5-21.8-96.3-46.6-110.7 18.5-10.7 88.3-42 68.5-74.5-18.8-31.6-99.7 51.3-109.8 62.1 5.4-19.2 19.1-99.7-26.2-86.3-19.4 5.7-18.8 30.6-18.8 46.7 0.4 22.1 0 44.6-0.3 66.8-0.3 20.4-14.8 104 25.9 95.6 15.4-3 19.8-23.2 21.4-35.9 1-8.7-5.3-48.3-1.3-50.7 13.4 29.2 38.2 125.9 87.2 86.9z"/><path class="c" d="m242.8 460.6c28.2-27.9-2.7-79.5-19.1-104.4 37.9-35.2 46.7-90.6-0.7-121.5-33.2-21.8-135.9-40.2-144.9 15.8-5.1 29.9-1.4 63.4-3.4 94.3-2 28.2-13.8 67.8-3.7 95.3 9.4 25.2 37.9 31.6 55.4 10.4 8.7-10.7 11.7-24.8 14.7-37.9 1.1-4.4 0.7-16.1 3.7-19.5 3.7-4 24.5-5.7 29.9-7.3 4.7 24.8 23.5 118.4 68.1 74.8zm-103.3-116.8c-1.4-13.4-9.4-38.6-5.4-51 2.7-9.1 9.1-8.7 19.1-9.1 24.9-1.3 52.4 21.2 23.2 41.6-11.4 8.1-24.2 13.5-36.9 18.5zm168.8 127.5c20.8-1 41.6-0.6 62.1-1.6 17.1-1.1 29.8-3.4 36.5-20.2 4.1-11.1 6.4-31.2-4.7-39.6-12.4-9-31.8-5-45.9-5.7-12.8-0.7-45.7-11.1-26.5-28.9 11.4-10.7 29.1 2.1 42.6-1.6 14.7-4.4 18.1-21.2 16.4-34.9-1-11.8-5-18.5-16.4-22.9-11.1-4-34.3 3.4-43-3-11.7-8.4-1-24.1 7.4-25.8 12.8-3 26.5 5.7 39.9 0.3 11.8-4.7 17.8-15.7 16.1-28.5-2.3-17.8-17.1-20.8-32.5-23.2-22.8-3.3-83.2-14.7-93.3 13.5-4.4 12-2 28.8-2.7 41.2-0.7 22.5-1.7 45-2.7 67.5-1 19.1-1.7 38.3-2.7 57.4-0.6 15.1-5 36.9 7.1 48.6 11.1 10.8 28.8 7.8 42.3 7.4zm175.5-3.7c28.2 8.8 67.4 7.1 71.5-28.8 4.7-41-33.9-29.2-60.4-40.6-34.9-14.8-19.8-48.4 2-69.2 25.8-8.4 66.4-15.7 65.1-51-1.7-36.2-42.6-28.2-66.5-20.1-60 20.1-99 86.6-76.5 148 11.1 29.5 34.9 52 64.8 61.7zm125.5-0.3c10.1-7.4 11.4-19.8 13.8-31.2 7.3-37.6 15.7-90.3-1-126.5-7.8-16.5-27.2-27.9-41.7-12.8-10.4 11.1-10.4 35.3-11.7 49-2.4 29.9-9.7 80.6 3.3 108.7 7.1 14.8 22.5 23.2 37.3 12.8zm-44-207.1c13.8 46.4 75.5 5.4 64.8-28.5 5.4-16.8-24.2-23.1-34.6-20.1-19.4 5.3-35.9 28.8-30.2 48.6zm105.7 211.5c26.2-3.4 24.5-36.6 24.5-56.4 0-15.1-1.6-39.3 11.5-50.7 9.4-8 27.1-11.1 37.9-17.8 22.5-13.7 43.9-34.9 40.6-63.4-6.4-53-68.5-63.1-111.8-61.8-38.6 1.4-34.9 37-36.5 68.5-2.1 40.3-1.1 80.6-3.1 121.2-1 23.1 3.1 64.7 36.9 60.4zm44.3-147.7c-18.4 5.7-15.4-4-14.7-18.5 0.3-14.7-6.4-48.6 16.4-37.2 10.8 5.7 17.1 19.5 16.5 31.2-0.4 12.1-6.4 20.8-18.2 24.5zm118.5 147.3c20.8-1 41.6-0.6 62.1-1.6 17.1-1.1 29.9-3.4 36.6-20.2 4-11.1 6.4-31.2-4.7-39.6-12.4-9-31.9-5-46-5.7-12.8-0.7-45.6-11.1-26.5-28.9 11.4-10.7 29.2 2.1 42.6-1.6 14.8-4.4 18.1-21.2 16.5-34.9-1.1-11.8-5.1-18.5-16.5-22.9-11.1-4-34.2 3.4-42.9-3-11.8-8.4-1.1-24.1 7.3-25.8 12.8-3 26.5 5.7 40 0.3 11.7-4.7 17.8-15.7 16.1-28.5-2.4-17.8-17.1-20.8-32.6-23.2-22.8-3.3-83.2-14.7-93.3 13.5-4.3 12-2 28.8-2.7 41.2-0.6 22.5-1.6 45-2.6 67.5-1 19.1-1.7 38.3-2.7 57.4-0.7 15.1-5.1 36.9 7 48.6 11.1 10.8 28.9 7.8 42.3 7.4z"/><path class="c" d="m239.7 742.3c28.5-3 59.1-12.4 76.5-36.6 18.5-25.8 18.8-69.8-5-92.6 20.1-17.8 38.6-49.6 27.5-77.2-13.1-33.2-55-33.5-84.9-32.5-22.5 0.3-61.4-4.7-75.2 17.4-11 18.5-6 46.3-5.3 66.8 1 38.6-3.7 82.6 5.3 120.2 7.1 31.2 32.2 37.5 61.1 34.5zm-16.4-50c0.3-9.4-3.7-31.2 0.3-38.6 3.7-6.7 9.7-7 19.8-7.4 13.1-0.3 32.2 3.1 27.8 20.9-4.6 19.1-31.8 23.4-47.9 25.1zm2-103.3c-1.7-1.4-0.7-21.2 0-22.5 5.7-13.1 57.7-5.7 48 10.7-5.4 9.1-18.5 10.4-27.9 11.4-2 0.4-18.1 2-20.1 0.4zm226.2 148.6c50.3-19.1 55.3-92.3 46.9-137.6-9.4-50.3-55.3-70.8-102.3-54-60.4 21.5-57.4 87.9-42 138.9 6.8 22.5 13.8 42 36.6 52.1 18.5 8 41.6 7.7 60.8 0.6zm-41.3-45.3c-13.1-13.4-12.1-51.3-6.7-68.4 4-12.1 24.8-28.9 39.2-21.2 19.2 10.8 12.8 57.1 8.4 74.2-5.3 19.8-21.8 34.9-40.9 15.4zm201 45.3c50.3-19.1 55.4-92.3 47-137.6-9.4-50.3-55.4-70.8-102.4-54-60.4 21.5-57.4 87.9-41.9 138.9 6.7 22.5 13.7 42 36.6 52.1 18.4 8 41.6 7.7 60.7 0.6zm-41.3-45.3c-13.1-13.4-12.1-51.3-6.7-68.4 4-12.1 24.8-28.9 39.3-21.2 19.1 10.8 12.7 57.1 8.4 74.2-5.4 19.8-21.8 34.9-41 15.4zm230.2 41.6c31.6-25.5-21.8-96.3-46.6-110.7 18.5-10.7 88.3-42 68.5-74.5-18.8-31.6-99.7 51.3-109.8 62.1 5.4-19.2 19.1-99.7-26.2-86.3-19.4 5.7-18.8 30.6-18.8 46.7 0.4 22.1 0 44.6-0.3 66.8-0.3 20.4-14.8 104 25.9 95.6 15.4-3 19.8-23.2 21.4-35.9 1-8.7-5.3-48.3-1.3-50.7 13.4 29.2 38.2 125.9 87.2 86.9z"/><path class="b" d="m196.9 835v-28.1h18.5v6.4h-11.1v4.5h11v6.2h-11v4.5h11.1v6.5zm31 0l11.4-28.1h7.2l11.4 28.1h-7.9l-1.9-5.2h-10.4l-1.9 5.2zm15-19.2l-2.7 7.5h5.5l-2.7-7.5zm38.6-9.4q2.7 0 4.8 0.6 2 0.5 3.3 1.2 1.2 0.6 1.5 0.8l-3.5 6q-0.4-0.3-1.2-0.7-0.8-0.5-1.9-0.9-1.1-0.3-2.1-0.3-1.4 0-2.3 0.4-0.8 0.4-0.8 1.3 0 0.7 0.4 1.2 0.5 0.5 1.5 1 1.1 0.5 2.8 1.1 1.6 0.6 2.9 1.4 1.4 0.8 2.4 1.8 1.1 1.1 1.6 2.5 0.6 1.4 0.6 3.2 0 2.3-0.9 3.9-0.9 1.6-2.5 2.6-1.5 1-3.5 1.5-2 0.5-4 0.5-3 0-5.4-0.6-2.4-0.7-3.9-1.5-1.4-0.8-1.7-1.1l3.6-6.2q0.3 0.2 1 0.6 0.8 0.4 1.9 0.9 1.1 0.5 2.3 0.8 1.1 0.3 2.2 0.3 1.6 0 2.4-0.5 0.8-0.6 0.8-1.5 0-0.7-0.5-1.3-0.5-0.6-1.6-1.1-1.1-0.6-2.9-1.3-1.9-0.7-3.5-1.7-1.6-1.1-2.6-2.8-1-1.6-1-4.1 0-2.5 1.4-4.3 1.4-1.8 3.6-2.8 2.3-0.9 4.8-0.9zm31.6 28.6v-10.1l-9.8-18h9.1l4.4 9.5 4.5-9.5h9l-9.7 18v10.1zm52.3 0v-28.1h11.1q2.7 0 4.9 1 2.2 0.9 3.5 2.9 1.3 2 1.3 4.9 0 2.8-1.3 4.9-1.3 2-3.5 3.1-2.2 1.1-4.9 1.1h-3.7v10.2zm7.4-22.3v6.3h1.6q1.1 0 2-0.3 0.8-0.3 1.3-1 0.6-0.7 0.6-1.9 0-1.1-0.6-1.8-0.5-0.7-1.3-1-0.9-0.3-2-0.3zm27.6 22.3v-28.1h18.4v6.4h-11v4.5h11v6.2h-11v4.5h11v6.5zm31 0l11.4-28.1h7.3l11.4 28.1h-7.9l-1.9-5.2h-10.4l-1.9 5.2zm15-19.2l-2.7 7.5h5.5l-2.7-7.5zm38.6-9.4q2.7 0 4.7 0.6 2.1 0.5 3.4 1.2 1.2 0.6 1.5 0.8l-3.5 6q-0.4-0.3-1.2-0.7-0.8-0.5-1.9-0.9-1.1-0.3-2.2-0.3-1.3 0-2.2 0.4-0.9 0.4-0.9 1.3 0 0.7 0.5 1.2 0.5 0.5 1.5 1 1 0.5 2.8 1.1 1.6 0.6 2.9 1.4 1.4 0.8 2.4 1.8 1 1.1 1.6 2.5 0.6 1.4 0.6 3.2 0 2.3-0.9 3.9-0.9 1.6-2.5 2.6-1.6 1-3.5 1.5-2 0.5-4 0.5-3.1 0-5.4-0.6-2.4-0.7-3.9-1.5-1.4-0.8-1.7-1.1l3.6-6.2q0.2 0.2 1 0.6 0.8 0.4 1.8 0.9 1.1 0.5 2.3 0.8 1.2 0.3 2.3 0.3 1.6 0 2.4-0.5 0.8-0.6 0.8-1.5 0-0.7-0.5-1.3-0.5-0.6-1.6-1.1-1.1-0.6-3-1.3-1.8-0.7-3.4-1.7-1.6-1.1-2.6-2.8-1-1.6-1-4.1 0-2.5 1.3-4.3 1.4-1.8 3.7-2.8 2.3-0.9 4.8-0.9zm31.6 28.6v-10.1l-9.8-18h9l4.5 9.5 4.5-9.5h9l-9.8 18v10.1zm67.7-6.8q1.7 0 3.2-0.6 1.5-0.5 2.3-1l3.1 6.3q-1 0.9-3.4 1.7-2.4 0.9-5.8 0.9-3.1 0-5.8-1.1-2.8-1.1-4.9-3-2.1-2-3.3-4.6-1.2-2.7-1.2-5.8 0-3.2 1.2-5.8 1.2-2.7 3.3-4.7 2.1-1.9 4.9-3 2.7-1.1 5.8-1.1 3.4 0 5.8 0.8 2.4 0.9 3.4 1.8l-3.1 6.2q-0.8-0.5-2.3-1-1.5-0.5-3.2-0.5-2.1 0-3.5 0.6-1.5 0.6-2.5 1.7-0.9 1-1.3 2.3-0.5 1.3-0.5 2.6 0 1.4 0.5 2.7 0.4 1.2 1.3 2.3 1 1 2.5 1.6 1.4 0.7 3.5 0.7zm30.2-7.3q0 2.1 0.8 3.9 0.9 1.7 2.4 2.7 1.6 1.1 3.7 1.1 2 0 3.6-1.1 1.5-1 2.4-2.7 0.9-1.8 0.9-3.9 0-2.1-0.9-3.8-0.9-1.8-2.4-2.8-1.6-1-3.6-1-2.1 0-3.7 1-1.5 1-2.4 2.8-0.8 1.7-0.8 3.8zm-7.8 0q0-3.1 1.1-5.7 1.1-2.7 3.1-4.6 2-2 4.7-3.1 2.7-1.1 5.8-1.1 3.1 0 5.8 1.1 2.7 1.1 4.6 3.1 2 1.9 3.1 4.6 1.1 2.6 1.1 5.7 0 3.1-1.1 5.8-1 2.6-3 4.6-1.9 2-4.6 3.1-2.7 1.1-5.9 1.1-3.4 0-6-1.1-2.7-1.1-4.7-3.1-1.9-2-2.9-4.6-1.1-2.7-1.1-5.8zm50.6 0q0 2.1 0.8 3.9 0.9 1.7 2.4 2.7 1.6 1.1 3.7 1.1 2 0 3.6-1.1 1.5-1 2.4-2.7 0.9-1.8 0.9-3.9 0-2.1-0.9-3.8-0.9-1.8-2.4-2.8-1.6-1-3.6-1-2.1 0-3.7 1-1.5 1-2.4 2.8-0.8 1.7-0.8 3.8zm-7.8 0q0-3.1 1.1-5.7 1.1-2.7 3.1-4.6 2-2 4.7-3.1 2.6-1.1 5.8-1.1 3.1 0 5.8 1.1 2.6 1.1 4.6 3.1 2 1.9 3.1 4.6 1.1 2.6 1.1 5.7 0 3.1-1.1 5.8-1.1 2.6-3 4.6-2 2-4.6 3.1-2.7 1.1-5.9 1.1-3.4 0-6.1-1.1-2.6-1.1-4.6-3.1-1.9-2-2.9-4.6-1.1-2.7-1.1-5.8zm65.9-14l-9.2 13.4 10.4 14.7h-8.8l-8-12v12h-7.4v-28.1h7.4v11l7.3-11zm14.4 28.1v-28.1h7.5v28.1zm39.7 0l-10.1-21.4 0.5 0.1v21.3h-7.4v-28.1h10.1l10.1 21.2-0.5 0.1v-21.3h7.4v28.1zm39.1-10.3v-5.6h14.4v1.9q0 3-1 5.7-1 2.6-2.9 4.6-1.8 2-4.5 3.1-2.6 1.1-5.8 1.1-3.4 0-6-1.1-2.7-1.1-4.7-3.1-1.9-2-2.9-4.7-1-2.6-1-5.7 0-3 1-5.7 1-2.6 2.9-4.6 2-2 4.7-3.1 2.6-1.1 6-1.1 2.9 0 5 0.6 2.2 0.6 3.7 1.6 1.5 1 2.5 2.2 1 1.2 1.6 2.3l-7.1 3.2q-0.7-1.2-2-2.1-1.3-0.9-3.7-0.9-1.6 0-2.8 0.6-1.3 0.6-2.2 1.6-0.9 1.1-1.4 2.5-0.5 1.4-0.5 2.9 0 1.6 0.5 3 0.5 1.4 1.4 2.4 0.9 1.1 2.2 1.7 1.2 0.6 2.8 0.6 1.3 0 2.3-0.3 1.1-0.2 1.8-0.8 0.7-0.5 1.2-1.2 0.4-0.7 0.6-1.6z"/></svg>